<mxfile host="app.diagrams.net" agent="Mozilla/5.0 (Windows NT 10.0; Win64; x64) AppleWebKit/537.36 (KHTML, like Gecko) Chrome/140.0.0.0 Safari/537.36 Edg/140.0.0.0" version="28.2.1">
  <diagram id="lUHSdE1d_6vybIHFBcf2" name="ページ1">
    <mxGraphModel dx="707" dy="461" grid="1" gridSize="10" guides="1" tooltips="1" connect="1" arrows="1" fold="1" page="1" pageScale="1" pageWidth="827" pageHeight="1169" math="0" shadow="0">
      <root>
        <mxCell id="0" />
        <mxCell id="1" parent="0" />
        <mxCell id="k7xvcgiWXY-FomJYAs61-2" value="" style="shape=umlActor;verticalLabelPosition=bottom;verticalAlign=top;html=1;outlineConnect=0;" vertex="1" parent="1">
          <mxGeometry x="50" y="40" width="60" height="70" as="geometry" />
        </mxCell>
        <mxCell id="k7xvcgiWXY-FomJYAs61-3" value="" style="endArrow=none;dashed=1;html=1;rounded=0;entryX=0.5;entryY=0.738;entryDx=0;entryDy=0;entryPerimeter=0;" edge="1" parent="1" source="k7xvcgiWXY-FomJYAs61-4" target="k7xvcgiWXY-FomJYAs61-2">
          <mxGeometry width="50" height="50" relative="1" as="geometry">
            <mxPoint x="370" y="320" as="sourcePoint" />
            <mxPoint x="430" y="240" as="targetPoint" />
          </mxGeometry>
        </mxCell>
        <mxCell id="k7xvcgiWXY-FomJYAs61-5" value="" style="endArrow=none;dashed=1;html=1;rounded=0;entryX=0.5;entryY=0.738;entryDx=0;entryDy=0;entryPerimeter=0;" edge="1" parent="1" source="k7xvcgiWXY-FomJYAs61-23" target="k7xvcgiWXY-FomJYAs61-4">
          <mxGeometry width="50" height="50" relative="1" as="geometry">
            <mxPoint x="80" y="400" as="sourcePoint" />
            <mxPoint x="370" y="62" as="targetPoint" />
          </mxGeometry>
        </mxCell>
        <mxCell id="k7xvcgiWXY-FomJYAs61-4" value="" style="html=1;points=[[0,0,0,0,5],[0,1,0,0,-5],[1,0,0,0,5],[1,1,0,0,-5]];perimeter=orthogonalPerimeter;outlineConnect=0;targetShapes=umlLifeline;portConstraint=eastwest;newEdgeStyle={&quot;curved&quot;:0,&quot;rounded&quot;:0};" vertex="1" parent="1">
          <mxGeometry x="75" y="150" width="10" height="90" as="geometry" />
        </mxCell>
        <mxCell id="k7xvcgiWXY-FomJYAs61-6" value="学生登録画面" style="shape=umlBoundary;whiteSpace=wrap;html=1;fillColor=#d5e8d4;strokeColor=#82b366;" vertex="1" parent="1">
          <mxGeometry x="280" y="20" width="100" height="80" as="geometry" />
        </mxCell>
        <mxCell id="k7xvcgiWXY-FomJYAs61-7" value="メニュー画面" style="shape=umlBoundary;whiteSpace=wrap;html=1;fillColor=#d5e8d4;strokeColor=#82b366;" vertex="1" parent="1">
          <mxGeometry x="160" y="20" width="100" height="80" as="geometry" />
        </mxCell>
        <mxCell id="k7xvcgiWXY-FomJYAs61-8" value="学生&lt;div&gt;オブジェクト&lt;/div&gt;" style="ellipse;shape=umlEntity;whiteSpace=wrap;html=1;fillColor=#dae8fc;strokeColor=#6c8ebf;" vertex="1" parent="1">
          <mxGeometry x="520" y="20" width="80" height="80" as="geometry" />
        </mxCell>
        <mxCell id="k7xvcgiWXY-FomJYAs61-9" value="学生情報登録" style="ellipse;shape=umlControl;whiteSpace=wrap;html=1;fillColor=#ffe6cc;strokeColor=#d79b00;" vertex="1" parent="1">
          <mxGeometry x="400" y="10" width="80" height="90" as="geometry" />
        </mxCell>
        <mxCell id="k7xvcgiWXY-FomJYAs61-10" value="" style="endArrow=none;dashed=1;html=1;rounded=0;entryX=0.552;entryY=0.996;entryDx=0;entryDy=0;entryPerimeter=0;" edge="1" parent="1" source="k7xvcgiWXY-FomJYAs61-15" target="k7xvcgiWXY-FomJYAs61-7">
          <mxGeometry width="50" height="50" relative="1" as="geometry">
            <mxPoint x="215" y="400" as="sourcePoint" />
            <mxPoint x="410" y="290" as="targetPoint" />
          </mxGeometry>
        </mxCell>
        <mxCell id="k7xvcgiWXY-FomJYAs61-11" value="" style="endArrow=none;dashed=1;html=1;rounded=0;entryX=0.542;entryY=1.003;entryDx=0;entryDy=0;entryPerimeter=0;" edge="1" parent="1" source="k7xvcgiWXY-FomJYAs61-19" target="k7xvcgiWXY-FomJYAs61-6">
          <mxGeometry width="50" height="50" relative="1" as="geometry">
            <mxPoint x="338" y="400" as="sourcePoint" />
            <mxPoint x="350" y="200" as="targetPoint" />
          </mxGeometry>
        </mxCell>
        <mxCell id="k7xvcgiWXY-FomJYAs61-12" value="" style="endArrow=none;dashed=1;html=1;rounded=0;entryX=0.488;entryY=1.007;entryDx=0;entryDy=0;entryPerimeter=0;" edge="1" parent="1" source="k7xvcgiWXY-FomJYAs61-31" target="k7xvcgiWXY-FomJYAs61-9">
          <mxGeometry width="50" height="50" relative="1" as="geometry">
            <mxPoint x="440" y="400" as="sourcePoint" />
            <mxPoint x="437" y="104" as="targetPoint" />
          </mxGeometry>
        </mxCell>
        <mxCell id="k7xvcgiWXY-FomJYAs61-13" value="" style="endArrow=none;dashed=1;html=1;rounded=0;entryX=0.5;entryY=1;entryDx=0;entryDy=0;" edge="1" parent="1" target="k7xvcgiWXY-FomJYAs61-8">
          <mxGeometry width="50" height="50" relative="1" as="geometry">
            <mxPoint x="560" y="400" as="sourcePoint" />
            <mxPoint x="430" y="390" as="targetPoint" />
          </mxGeometry>
        </mxCell>
        <mxCell id="k7xvcgiWXY-FomJYAs61-16" value="" style="endArrow=none;dashed=1;html=1;rounded=0;entryX=0.552;entryY=0.996;entryDx=0;entryDy=0;entryPerimeter=0;" edge="1" parent="1" target="k7xvcgiWXY-FomJYAs61-15">
          <mxGeometry width="50" height="50" relative="1" as="geometry">
            <mxPoint x="215" y="400" as="sourcePoint" />
            <mxPoint x="215" y="100" as="targetPoint" />
          </mxGeometry>
        </mxCell>
        <mxCell id="k7xvcgiWXY-FomJYAs61-15" value="" style="html=1;points=[[0,0,0,0,5],[0,1,0,0,-5],[1,0,0,0,5],[1,1,0,0,-5]];perimeter=orthogonalPerimeter;outlineConnect=0;targetShapes=umlLifeline;portConstraint=eastwest;newEdgeStyle={&quot;curved&quot;:0,&quot;rounded&quot;:0};" vertex="1" parent="1">
          <mxGeometry x="210" y="160" width="10" height="60" as="geometry" />
        </mxCell>
        <mxCell id="k7xvcgiWXY-FomJYAs61-17" value="" style="endArrow=classic;html=1;rounded=0;entryX=0;entryY=0;entryDx=0;entryDy=0;entryPerimeter=0;" edge="1" parent="1" source="k7xvcgiWXY-FomJYAs61-4" target="k7xvcgiWXY-FomJYAs61-15">
          <mxGeometry width="50" height="50" relative="1" as="geometry">
            <mxPoint x="100" y="190" as="sourcePoint" />
            <mxPoint x="420" y="200" as="targetPoint" />
          </mxGeometry>
        </mxCell>
        <mxCell id="k7xvcgiWXY-FomJYAs61-18" value="学生登録を選択（）" style="text;html=1;align=center;verticalAlign=middle;whiteSpace=wrap;rounded=0;" vertex="1" parent="1">
          <mxGeometry x="100" y="140" width="110" height="20" as="geometry" />
        </mxCell>
        <mxCell id="k7xvcgiWXY-FomJYAs61-20" value="" style="endArrow=none;dashed=1;html=1;rounded=0;entryX=0.575;entryY=0.986;entryDx=0;entryDy=0;entryPerimeter=0;" edge="1" parent="1" source="k7xvcgiWXY-FomJYAs61-29" target="k7xvcgiWXY-FomJYAs61-19">
          <mxGeometry width="50" height="50" relative="1" as="geometry">
            <mxPoint x="336" y="400" as="sourcePoint" />
            <mxPoint x="338" y="99" as="targetPoint" />
            <Array as="points" />
          </mxGeometry>
        </mxCell>
        <mxCell id="k7xvcgiWXY-FomJYAs61-19" value="" style="html=1;points=[[0,0,0,0,5],[0,1,0,0,-5],[1,0,0,0,5],[1,1,0,0,-5]];perimeter=orthogonalPerimeter;outlineConnect=0;targetShapes=umlLifeline;portConstraint=eastwest;newEdgeStyle={&quot;curved&quot;:0,&quot;rounded&quot;:0};" vertex="1" parent="1">
          <mxGeometry x="330" y="165" width="10" height="45" as="geometry" />
        </mxCell>
        <mxCell id="k7xvcgiWXY-FomJYAs61-21" value="" style="endArrow=classic;html=1;rounded=0;entryX=0;entryY=0;entryDx=0;entryDy=5;entryPerimeter=0;" edge="1" parent="1" source="k7xvcgiWXY-FomJYAs61-15" target="k7xvcgiWXY-FomJYAs61-19">
          <mxGeometry width="50" height="50" relative="1" as="geometry">
            <mxPoint x="370" y="250" as="sourcePoint" />
            <mxPoint x="420" y="200" as="targetPoint" />
          </mxGeometry>
        </mxCell>
        <mxCell id="k7xvcgiWXY-FomJYAs61-22" value="表示（）" style="text;html=1;align=center;verticalAlign=middle;whiteSpace=wrap;rounded=0;" vertex="1" parent="1">
          <mxGeometry x="250" y="150" width="50" height="15" as="geometry" />
        </mxCell>
        <mxCell id="k7xvcgiWXY-FomJYAs61-24" value="" style="endArrow=none;dashed=1;html=1;rounded=0;entryX=0.5;entryY=0.738;entryDx=0;entryDy=0;entryPerimeter=0;" edge="1" parent="1" target="k7xvcgiWXY-FomJYAs61-23">
          <mxGeometry width="50" height="50" relative="1" as="geometry">
            <mxPoint x="80" y="400" as="sourcePoint" />
            <mxPoint x="80" y="216" as="targetPoint" />
          </mxGeometry>
        </mxCell>
        <mxCell id="k7xvcgiWXY-FomJYAs61-23" value="" style="html=1;points=[[0,0,0,0,5],[0,1,0,0,-5],[1,0,0,0,5],[1,1,0,0,-5]];perimeter=orthogonalPerimeter;outlineConnect=0;targetShapes=umlLifeline;portConstraint=eastwest;newEdgeStyle={&quot;curved&quot;:0,&quot;rounded&quot;:0};" vertex="1" parent="1">
          <mxGeometry x="75" y="270" width="10" height="90" as="geometry" />
        </mxCell>
        <mxCell id="k7xvcgiWXY-FomJYAs61-30" value="" style="endArrow=none;dashed=1;html=1;rounded=0;entryX=0.575;entryY=0.986;entryDx=0;entryDy=0;entryPerimeter=0;" edge="1" parent="1" target="k7xvcgiWXY-FomJYAs61-29">
          <mxGeometry width="50" height="50" relative="1" as="geometry">
            <mxPoint x="336" y="400" as="sourcePoint" />
            <mxPoint x="336" y="209" as="targetPoint" />
            <Array as="points">
              <mxPoint x="336" y="240" />
            </Array>
          </mxGeometry>
        </mxCell>
        <mxCell id="k7xvcgiWXY-FomJYAs61-29" value="" style="html=1;points=[[0,0,0,0,5],[0,1,0,0,-5],[1,0,0,0,5],[1,1,0,0,-5]];perimeter=orthogonalPerimeter;outlineConnect=0;targetShapes=umlLifeline;portConstraint=eastwest;newEdgeStyle={&quot;curved&quot;:0,&quot;rounded&quot;:0};" vertex="1" parent="1">
          <mxGeometry x="330" y="280" width="10" height="70" as="geometry" />
        </mxCell>
        <mxCell id="k7xvcgiWXY-FomJYAs61-32" value="" style="endArrow=none;dashed=1;html=1;rounded=0;entryX=0.488;entryY=1.007;entryDx=0;entryDy=0;entryPerimeter=0;" edge="1" parent="1" target="k7xvcgiWXY-FomJYAs61-31">
          <mxGeometry width="50" height="50" relative="1" as="geometry">
            <mxPoint x="440" y="400" as="sourcePoint" />
            <mxPoint x="439" y="101" as="targetPoint" />
          </mxGeometry>
        </mxCell>
        <mxCell id="k7xvcgiWXY-FomJYAs61-31" value="" style="html=1;points=[[0,0,0,0,5],[0,1,0,0,-5],[1,0,0,0,5],[1,1,0,0,-5]];perimeter=orthogonalPerimeter;outlineConnect=0;targetShapes=umlLifeline;portConstraint=eastwest;newEdgeStyle={&quot;curved&quot;:0,&quot;rounded&quot;:0};" vertex="1" parent="1">
          <mxGeometry x="435" y="280" width="10" height="50" as="geometry" />
        </mxCell>
        <mxCell id="k7xvcgiWXY-FomJYAs61-33" value="" style="endArrow=classic;html=1;rounded=0;entryX=0;entryY=0;entryDx=0;entryDy=5;entryPerimeter=0;" edge="1" parent="1" source="k7xvcgiWXY-FomJYAs61-23" target="k7xvcgiWXY-FomJYAs61-29">
          <mxGeometry width="50" height="50" relative="1" as="geometry">
            <mxPoint x="370" y="250" as="sourcePoint" />
            <mxPoint x="420" y="200" as="targetPoint" />
          </mxGeometry>
        </mxCell>
        <mxCell id="k7xvcgiWXY-FomJYAs61-34" value="学生データ入力（）" style="text;html=1;align=center;verticalAlign=middle;whiteSpace=wrap;rounded=0;" vertex="1" parent="1">
          <mxGeometry x="110" y="260" width="110" height="20" as="geometry" />
        </mxCell>
        <mxCell id="k7xvcgiWXY-FomJYAs61-36" value="" style="endArrow=classic;html=1;rounded=0;exitX=1;exitY=0;exitDx=0;exitDy=5;exitPerimeter=0;entryX=0;entryY=0;entryDx=0;entryDy=5;entryPerimeter=0;" edge="1" parent="1" source="k7xvcgiWXY-FomJYAs61-29" target="k7xvcgiWXY-FomJYAs61-31">
          <mxGeometry width="50" height="50" relative="1" as="geometry">
            <mxPoint x="370" y="250" as="sourcePoint" />
            <mxPoint x="420" y="200" as="targetPoint" />
          </mxGeometry>
        </mxCell>
        <mxCell id="k7xvcgiWXY-FomJYAs61-37" value="起動（）" style="text;html=1;align=center;verticalAlign=middle;whiteSpace=wrap;rounded=0;" vertex="1" parent="1">
          <mxGeometry x="364" y="260" width="50" height="30" as="geometry" />
        </mxCell>
        <mxCell id="k7xvcgiWXY-FomJYAs61-38" value="" style="html=1;points=[[0,0,0,0,5],[0,1,0,0,-5],[1,0,0,0,5],[1,1,0,0,-5]];perimeter=orthogonalPerimeter;outlineConnect=0;targetShapes=umlLifeline;portConstraint=eastwest;newEdgeStyle={&quot;curved&quot;:0,&quot;rounded&quot;:0};" vertex="1" parent="1">
          <mxGeometry x="555" y="280" width="10" height="40" as="geometry" />
        </mxCell>
        <mxCell id="k7xvcgiWXY-FomJYAs61-39" value="" style="endArrow=classic;html=1;rounded=0;entryX=0;entryY=0;entryDx=0;entryDy=5;entryPerimeter=0;exitX=1;exitY=0;exitDx=0;exitDy=5;exitPerimeter=0;" edge="1" parent="1" source="k7xvcgiWXY-FomJYAs61-31" target="k7xvcgiWXY-FomJYAs61-38">
          <mxGeometry width="50" height="50" relative="1" as="geometry">
            <mxPoint x="370" y="250" as="sourcePoint" />
            <mxPoint x="420" y="200" as="targetPoint" />
          </mxGeometry>
        </mxCell>
        <mxCell id="k7xvcgiWXY-FomJYAs61-40" value="学生データ登録（）" style="text;html=1;align=center;verticalAlign=middle;whiteSpace=wrap;rounded=0;" vertex="1" parent="1">
          <mxGeometry x="445" y="265" width="110" height="20" as="geometry" />
        </mxCell>
      </root>
    </mxGraphModel>
  </diagram>
</mxfile>
